<svg width="28" height="28" viewBox="0 0 28 28" fill="none" xmlns="http://www.w3.org/2000/svg">
<rect width="28" height="28" rx="4" fill="#F00507" fill-opacity="0.1"/>
<path fill-rule="evenodd" clip-rule="evenodd" d="M16.0345 14.1837V18.5752C16.0345 18.8685 15.7966 19.1066 15.5031 19.1066C15.2097 19.1066 14.9719 18.8685 14.9719 18.5752V14.1837C14.9719 13.8901 15.2097 13.6523 15.5031 13.6523C15.7966 13.6523 16.0345 13.8901 16.0345 14.1837ZM13.0298 14.1837V18.5752C13.0298 18.8685 12.7919 19.1066 12.4984 19.1066C12.205 19.1066 11.9671 18.8685 11.9671 18.5752V14.1837C11.9671 13.8901 12.205 13.6523 12.4984 13.6523C12.7919 13.6523 13.0298 13.8901 13.0298 14.1837ZM18.8125 11.2291H9.18911C8.70582 11.2291 8.3127 10.8356 8.3127 10.3533C8.3127 9.86917 8.70582 9.47567 9.18911 9.47567H18.8125C19.2958 9.47567 19.6889 9.86917 19.6889 10.3533C19.6889 10.8356 19.2958 11.2291 18.8125 11.2291ZM14.0008 21.2728C16.2567 21.2728 18.092 19.4378 18.092 17.1816V12.292H9.90954V17.1817C9.90954 19.4378 11.7449 21.2728 14.0008 21.2728ZM14.0008 6.72694C15.1014 6.72694 16.0498 7.42135 16.4069 8.41282H11.5947C11.9518 7.42135 12.9002 6.72694 14.0008 6.72694ZM20.7516 10.3533C20.7516 9.28277 19.8817 8.41282 18.8125 8.41282H17.5155C17.1237 6.81757 15.6886 5.66406 14.0008 5.66406C12.313 5.66406 10.8778 6.81757 10.4861 8.41282H9.18915C8.11994 8.41282 7.25 9.2828 7.25 10.3533C7.25 11.3063 7.94043 12.0991 8.84687 12.2611V17.1816C8.84687 20.0234 11.1589 22.3354 14.0008 22.3354C16.8427 22.3354 19.1547 20.0234 19.1547 17.1816V12.2611C20.0612 12.0991 20.7516 11.3063 20.7516 10.3533Z" fill="#F00507"/>
</svg>
