<svg width="18" height="10" viewBox="0 0 18 10" fill="none" xmlns="http://www.w3.org/2000/svg">
<path d="M17.0306 1.53104L9.53063 9.03104C9.46097 9.10077 9.37825 9.15609 9.28721 9.19384C9.19616 9.23158 9.09856 9.25101 9 9.25101C8.90144 9.25101 8.80384 9.23158 8.7128 9.19384C8.62175 9.15609 8.53903 9.10077 8.46938 9.03104L0.969376 1.53104C0.828646 1.39031 0.749584 1.19944 0.749584 1.00042C0.749584 0.801394 0.828646 0.610522 0.969376 0.469792C1.11011 0.329061 1.30098 0.25 1.5 0.25C1.69902 0.25 1.8899 0.329061 2.03063 0.469792L9 7.4401L15.9694 0.469792C16.0391 0.400109 16.1218 0.344834 16.2128 0.307122C16.3039 0.26941 16.4015 0.25 16.5 0.25C16.5985 0.25 16.6961 0.26941 16.7872 0.307122C16.8782 0.344834 16.9609 0.400109 17.0306 0.469792C17.1003 0.539474 17.1556 0.6222 17.1933 0.713245C17.231 0.804289 17.2504 0.901871 17.2504 1.00042C17.2504 1.09896 17.231 1.19654 17.1933 1.28759C17.1556 1.37863 17.1003 1.46136 17.0306 1.53104Z" fill="black"/>
</svg>
