<svg width="28" height="28" viewBox="0 0 28 28" fill="none" xmlns="http://www.w3.org/2000/svg">
<rect width="28" height="28" rx="4" fill="#F07111" fill-opacity="0.1"/>
<path d="M13.0119 21.3635C11.3637 21.3534 9.72237 21.192 8.1305 20.8831C7.86725 20.8336 7.67656 20.598 7.67656 20.3229V19.631C7.67656 17.2398 9.62225 15.2941 12.0134 15.2941H14.4434C15.2287 15.2941 16.0027 15.5068 16.6822 15.9101C16.9235 16.0518 17.2334 15.9736 17.3758 15.7323C17.5181 15.4921 17.4388 15.1816 17.1986 15.0388C16.7896 14.7963 16.352 14.6118 15.8992 14.4847C17.2031 13.6173 18.0648 12.1363 18.0648 10.4561C18.0648 7.78927 15.8953 5.61914 13.2279 5.61914C10.5605 5.61914 8.3915 7.78927 8.3915 10.4561C8.3915 12.138 9.2555 13.6201 10.5616 14.4875C8.31612 15.1226 6.66406 17.1853 6.66406 19.631V20.3229C6.66406 21.084 7.20181 21.7381 7.93981 21.8771C9.59075 22.1977 11.2951 22.3659 13.0057 22.376H13.0085C13.2869 22.376 13.5131 22.1516 13.5148 21.8726C13.517 21.5936 13.2914 21.3652 13.0119 21.3635ZM9.404 10.4561C9.404 8.34727 11.1196 6.63164 13.2284 6.63164C15.3372 6.63164 17.0523 8.34727 17.0523 10.4561C17.0523 12.5649 15.3372 14.2805 13.2284 14.2805C11.1196 14.2805 9.404 12.5649 9.404 10.4561Z" fill="#F07111"/>
<path d="M20.8533 15.9665C20.2076 15.3208 19.1568 15.3213 18.5116 15.9665L14.9167 19.562C14.7822 19.697 14.6939 19.868 14.6619 20.0565L14.4504 21.3136C14.4009 21.6056 14.4959 21.9043 14.7052 22.1141C14.8784 22.2873 15.113 22.383 15.3543 22.383C15.4044 22.383 15.4556 22.379 15.5062 22.3706L16.7622 22.1574C16.9507 22.1259 17.1222 22.0381 17.2589 21.9015L20.8533 18.3071C21.4985 17.6619 21.4985 16.6117 20.8533 15.9665ZM16.5648 21.1635L15.4713 21.3485L15.6552 20.255L18.0802 17.8301L18.9897 18.7391L16.5648 21.1635ZM20.1367 17.5916L19.7058 18.0225L18.7962 17.1135L19.2271 16.6826C19.4791 16.4311 19.8869 16.4323 20.1372 16.6826C20.2582 16.8041 20.3251 16.965 20.3251 17.1371C20.3251 17.3086 20.2582 17.4701 20.1367 17.5916Z" fill="#F07111"/>
</svg>
