<svg width="188" height="41" viewBox="0 0 188 41" fill="none" xmlns="http://www.w3.org/2000/svg">
<path d="M25.5697 8.77155C24.4572 8.32575 23.2802 8.03489 22.0695 7.91917L24.8061 0L28.1961 1.17118L25.5697 8.77155Z" fill="url(#paint0_linear_1422_683)"/>
<path d="M8.16297 21.0301C8.17489 21.9521 8.2823 22.8879 8.49284 23.8252C8.55012 24.0802 8.61426 24.3319 8.685 24.58L0.420933 25.5709L0 22.0089L8.16297 21.0301Z" fill="url(#paint1_linear_1422_683)"/>
<path d="M8.41136 18.2911L0.374722 15.7707L1.473 12.2711L9.61138 14.8234C9.05732 15.9072 8.65062 17.074 8.41136 18.2911Z" fill="url(#paint2_linear_1422_683)"/>
<path d="M10.9689 12.7005L4.91539 6.43273L7.57773 3.86519L13.6495 10.1518C12.6317 10.8689 11.7311 11.73 10.9689 12.7005Z" fill="url(#paint3_linear_1422_683)"/>
<path d="M19.5235 7.93666C19.0588 7.98747 18.5924 8.06472 18.126 8.1695C17.3759 8.33797 16.6565 8.57067 15.9719 8.86072L14.1505 0.810556L17.7284 0.00279226L19.5235 7.93666Z" fill="url(#paint4_linear_1422_683)"/>
<path d="M28.4602 10.6875H32.9178V32.1182H28.4387L28.2673 29.0108C27.6386 30.1109 26.7886 30.9967 25.717 31.6682C24.6455 32.3397 23.3811 32.6754 21.9238 32.6754C20.3522 32.6754 18.8735 32.3825 17.4876 31.7968C16.1018 31.1967 14.8802 30.368 13.823 29.3108C12.78 28.2535 11.9656 27.0391 11.3799 25.6676C10.7941 24.2817 10.5012 22.7959 10.5012 21.21C10.5012 19.6813 10.7869 18.2454 11.3584 16.9024C11.9299 15.5451 12.7229 14.3593 13.7372 13.3449C14.7516 12.3305 15.9232 11.5376 17.2519 10.9661C18.5949 10.3803 20.0307 10.0874 21.5595 10.0874C23.1168 10.0874 24.4883 10.4446 25.6742 11.159C26.8743 11.859 27.8672 12.7591 28.653 13.8592L28.4602 10.6875ZM21.8166 28.3678C23.0739 28.3678 24.174 28.0607 25.117 27.4463C26.0599 26.8177 26.7886 25.9747 27.3029 24.9175C27.8315 23.8602 28.0958 22.6887 28.0958 21.4029C28.0958 20.1027 27.8315 18.924 27.3029 17.8668C26.7743 16.8095 26.0385 15.9737 25.0955 15.3594C24.1669 14.7308 23.0739 14.4164 21.8166 14.4164C20.5737 14.4164 19.4378 14.7308 18.4091 15.3594C17.3805 15.988 16.5661 16.831 15.966 17.8882C15.366 18.9455 15.0659 20.117 15.0659 21.4029C15.0659 22.703 15.3731 23.8817 15.9875 24.9389C16.6161 25.9819 17.4376 26.8177 18.452 27.4463C19.4807 28.0607 20.6022 28.3678 21.8166 28.3678Z" fill="#0D0128"/>
<path d="M48.4909 32.6871C45.1545 32.6871 42.2259 31.3526 40.187 29.2766V40.1383H35.1825V10.7042H39.9275V13.5957C41.9664 11.3715 44.9691 9.99988 48.4909 9.99988C54.6446 9.99988 59.3155 15.0044 59.3155 21.2694C59.3155 27.5343 54.6446 32.6871 48.4909 32.6871ZM40.0387 21.3435C40.0387 25.0876 43.0785 28.3128 47.1192 28.3128C51.1599 28.3128 54.0515 25.1247 54.0515 21.3806C54.0515 17.6364 51.1599 14.3742 47.1192 14.3742C43.0785 14.3742 40.0387 17.6364 40.0387 21.3435Z" fill="#0D0128"/>
<path d="M74.6923 32.6871C71.3559 32.6871 68.4273 31.3526 66.3884 29.2766V40.1383H61.3839V10.7042H66.1289V13.5957C68.1678 11.3715 71.1706 9.99988 74.6923 9.99988C80.846 9.99988 85.5169 15.0044 85.5169 21.2694C85.5169 27.5343 80.846 32.6871 74.6923 32.6871ZM66.2402 21.3435C66.2402 25.0876 69.2799 28.3128 73.3206 28.3128C77.3614 28.3128 80.2529 25.1247 80.2529 21.3806C80.2529 17.6364 77.3614 14.3742 73.3206 14.3742C69.2799 14.3742 66.2402 17.6364 66.2402 21.3435Z" fill="#0D0128"/>
<path d="M92.5899 20.5279V31.9828H87.5853V10.7042H92.3674V15.2268C93.183 13.5587 95.3701 10.7042 98.447 10.7042H99.1514V16.4131C98.9289 16.3019 98.4099 16.2277 98.1134 16.2277C94.7399 16.2277 92.5899 18.7486 92.5899 20.5279Z" fill="#0D0128"/>
<path d="M105.943 3.06767V7.7015H100.79V3.06767H105.943ZM105.869 10.7042V31.9828H100.864V10.7042H105.869Z" fill="#0D0128"/>
<path d="M115.751 9.96281C117.604 9.96281 119.272 10.3706 120.533 10.8896V15.3381C118.939 14.5225 117.308 14.1518 116.158 14.1518C114.453 14.1518 113.452 14.8191 113.452 15.8941C113.452 16.6355 114.342 17.414 116.418 18.7486C121.497 22.0108 122.757 24.0867 122.757 26.4963C122.757 30.1663 119.828 32.65 114.972 32.6871C113.119 32.6871 110.524 32.0198 108.67 31.2043V26.7558C110.931 27.905 113.044 28.424 114.268 28.424C116.529 28.424 117.493 27.4972 117.493 26.4222C117.493 25.7178 116.9 24.9023 113.415 22.678C109.041 19.8236 108.188 18.2666 108.188 15.6346C108.188 12.8914 110.375 9.92574 115.751 9.96281Z" fill="#0D0128"/>
<path d="M133.569 14.9303H130.9V31.9828H125.896V14.9303H123.226V10.7042H125.896V5.5514L130.9 4.43929V10.7042H133.569V14.9303Z" fill="#0D0128"/>
<path d="M140.417 3.06767V7.7015H135.265V3.06767H140.417ZM140.343 10.7042V31.9828H135.339V10.7042H140.343Z" fill="#0D0128"/>
<path d="M148.297 19.1563V31.9828H143.293V10.7042H148.075V13.0397C149.483 11.5198 151.93 10.1111 155.044 10.1111C159.567 10.1111 162.681 13.1138 162.681 18.0071V31.9828H157.676V19.527C157.676 15.82 155.526 14.5225 153.042 14.5225C150.929 14.5225 148.297 16.1536 148.297 19.1563Z" fill="#0D0128"/>
<path d="M187.495 29.1654C185.159 31.3155 182.119 33.0949 177.263 33.0949C169.627 33.0949 164.696 28.0533 164.696 21.3435C164.696 14.5966 169.59 9.62917 176.225 9.62917C182.824 9.62917 187.717 14.5966 187.717 21.3435V22.6039H170.034C170.479 26.4222 172.926 28.7947 177.263 28.7947C180.563 28.7947 182.861 27.6455 184.492 26.0144L187.495 29.1654ZM176.225 13.8923C173.111 13.8923 170.998 15.7458 170.257 18.7486H182.157C181.415 15.7458 179.339 13.8923 176.225 13.8923Z" fill="#0D0128"/>
<defs>
<linearGradient id="paint0_linear_1422_683" x1="5.33971" y1="6.49396" x2="21.7068" y2="26.0068" gradientUnits="userSpaceOnUse">
<stop stop-color="#FFC901"/>
<stop offset="0.172213" stop-color="#EC611D"/>
<stop offset="0.482213" stop-color="#DC367F"/>
<stop offset="0.667213" stop-color="#633A8D"/>
</linearGradient>
<linearGradient id="paint1_linear_1422_683" x1="5.33971" y1="6.49396" x2="21.7068" y2="26.0068" gradientUnits="userSpaceOnUse">
<stop stop-color="#FFC901"/>
<stop offset="0.172213" stop-color="#EC611D"/>
<stop offset="0.482213" stop-color="#DC367F"/>
<stop offset="0.667213" stop-color="#633A8D"/>
</linearGradient>
<linearGradient id="paint2_linear_1422_683" x1="5.33971" y1="6.49396" x2="21.7068" y2="26.0068" gradientUnits="userSpaceOnUse">
<stop stop-color="#FFC901"/>
<stop offset="0.172213" stop-color="#EC611D"/>
<stop offset="0.482213" stop-color="#DC367F"/>
<stop offset="0.667213" stop-color="#633A8D"/>
</linearGradient>
<linearGradient id="paint3_linear_1422_683" x1="5.33971" y1="6.49396" x2="21.7068" y2="26.0068" gradientUnits="userSpaceOnUse">
<stop stop-color="#FFC901"/>
<stop offset="0.172213" stop-color="#EC611D"/>
<stop offset="0.482213" stop-color="#DC367F"/>
<stop offset="0.667213" stop-color="#633A8D"/>
</linearGradient>
<linearGradient id="paint4_linear_1422_683" x1="5.33971" y1="6.49396" x2="21.7068" y2="26.0068" gradientUnits="userSpaceOnUse">
<stop stop-color="#FFC901"/>
<stop offset="0.172213" stop-color="#EC611D"/>
<stop offset="0.482213" stop-color="#DC367F"/>
<stop offset="0.667213" stop-color="#633A8D"/>
</linearGradient>
</defs>
</svg>
