<svg width="141" height="31" viewBox="0 0 141 31" fill="none" xmlns="http://www.w3.org/2000/svg">
<path d="M19.1993 6.58622C18.364 6.25149 17.4802 6.03309 16.5711 5.9462L18.626 0L21.1714 0.879397L19.1993 6.58622Z" fill="url(#paint0_linear_530_13824)"/>
<path d="M6.12926 15.7907C6.13821 16.483 6.21886 17.1856 6.37694 17.8894C6.41995 18.0809 6.46811 18.2699 6.52123 18.4562L0.316062 19.2002L0 16.5257L6.12926 15.7907Z" fill="url(#paint1_linear_530_13824)"/>
<path d="M6.31577 13.7341L0.281364 11.8416L1.10602 9.21387L7.21681 11.1303C6.80079 11.9441 6.49542 12.8202 6.31577 13.7341Z" fill="url(#paint2_linear_530_13824)"/>
<path d="M8.23611 9.5363L3.69078 4.83009L5.68983 2.90222L10.2489 7.62263C9.48469 8.16107 8.80847 8.80759 8.23611 9.5363Z" fill="url(#paint3_linear_530_13824)"/>
<path d="M14.6594 5.95933C14.3105 5.99748 13.9603 6.05549 13.6101 6.13416C13.0469 6.26066 12.5067 6.43538 11.9927 6.65318L10.625 0.608615L13.3115 0.0020966L14.6594 5.95933Z" fill="url(#paint4_linear_530_13824)"/>
<path d="M21.3696 8.02482H24.7167V24.1163H21.3535L21.2248 21.7831C20.7528 22.6091 20.1145 23.2742 19.3099 23.7784C18.5053 24.2826 17.5559 24.5347 16.4617 24.5347C15.2817 24.5347 14.1714 24.3148 13.1308 23.875C12.0902 23.4244 11.173 22.8022 10.3791 22.0083C9.59601 21.2145 8.98453 20.3026 8.5447 19.2728C8.10486 18.2322 7.88495 17.1165 7.88495 15.9258C7.88495 14.7779 8.0995 13.6998 8.52861 12.6914C8.95771 11.6722 9.5531 10.7818 10.3148 10.0202C11.0764 9.2585 11.9561 8.66312 12.9538 8.23401C13.9622 7.79418 15.0403 7.57426 16.1882 7.57426C17.3575 7.57426 18.3873 7.84245 19.2777 8.37883C20.1789 8.90449 20.9244 9.58033 21.5145 10.4064L21.3696 8.02482ZM16.3813 21.3003C17.3253 21.3003 18.1513 21.0697 18.8594 20.6084C19.5674 20.1364 20.1145 19.5034 20.5007 18.7096C20.8976 17.9157 21.0961 17.0361 21.0961 16.0706C21.0961 15.0944 20.8976 14.2093 20.5007 13.4155C20.1038 12.6216 19.5513 11.9941 18.8433 11.5328C18.146 11.0608 17.3253 10.8247 16.3813 10.8247C15.448 10.8247 14.5951 11.0608 13.8227 11.5328C13.0503 12.0048 12.4388 12.6377 11.9883 13.4316C11.5377 14.2254 11.3124 15.1051 11.3124 16.0706C11.3124 17.0468 11.5431 17.9318 12.0044 18.7257C12.4764 19.5088 13.0932 20.1364 13.8549 20.6084C14.6273 21.0697 15.4694 21.3003 16.3813 21.3003Z" fill="white"/>
<path d="M36.4098 24.5438C33.9047 24.5438 31.7057 23.5417 30.1748 21.983V30.1386H26.4171V8.0377H29.98V10.2088C31.5109 8.53873 33.7655 7.50884 36.4098 7.50884C41.0304 7.50884 44.5376 11.2666 44.5376 15.9707C44.5376 20.6748 41.0304 24.5438 36.4098 24.5438ZM30.0635 16.0263C30.0635 18.8376 32.3459 21.2593 35.38 21.2593C38.414 21.2593 40.5851 18.8655 40.5851 16.0542C40.5851 13.2428 38.414 10.7934 35.38 10.7934C32.3459 10.7934 30.0635 13.2428 30.0635 16.0263Z" fill="white"/>
<path d="M56.0835 24.5438C53.5783 24.5438 51.3794 23.5417 49.8485 21.983V30.1386H46.0907V8.0377H49.6536V10.2088C51.1845 8.53873 53.4392 7.50884 56.0835 7.50884C60.7041 7.50884 64.2113 11.2666 64.2113 15.9707C64.2113 20.6748 60.7041 24.5438 56.0835 24.5438ZM49.7371 16.0263C49.7371 18.8376 52.0196 21.2593 55.0536 21.2593C58.0876 21.2593 60.2587 18.8655 60.2587 16.0542C60.2587 13.2428 58.0876 10.7934 55.0536 10.7934C52.0196 10.7934 49.7371 13.2428 49.7371 16.0263Z" fill="white"/>
<path d="M69.5221 15.414V24.0149H65.7644V8.0377H69.3551V11.4336C69.9674 10.181 71.6097 8.0377 73.92 8.0377H74.4489V12.3243C74.2818 12.2408 73.8922 12.1851 73.6695 12.1851C71.1365 12.1851 69.5221 14.0779 69.5221 15.414Z" fill="white"/>
<path d="M79.5485 2.30371V5.78307H75.6795V2.30371H79.5485ZM79.4928 8.0377V24.0149H75.7351V8.0377H79.4928Z" fill="white"/>
<path d="M86.9126 7.481C88.3043 7.481 89.5569 7.78719 90.5033 8.17688V11.5171C89.3064 10.9047 88.0817 10.6263 87.2188 10.6263C85.9384 10.6263 85.1868 11.1274 85.1868 11.9346C85.1868 12.4913 85.8549 13.0758 87.4136 14.0779C91.227 16.5273 92.1734 18.0861 92.1734 19.8954C92.1734 22.651 89.9744 24.516 86.3281 24.5438C84.9363 24.5438 82.9879 24.0428 81.5961 23.4304V20.0902C83.2941 20.9531 84.8806 21.3428 85.7992 21.3428C87.4971 21.3428 88.2208 20.6469 88.2208 19.8397C88.2208 19.3108 87.7755 18.6985 85.159 17.0284C81.8745 14.8851 81.2343 13.716 81.2343 11.7397C81.2343 9.67996 82.8765 7.45317 86.9126 7.481Z" fill="white"/>
<path d="M100.292 11.2109H98.2877V24.0149H94.53V11.2109H92.5259V8.0377H94.53V4.16865L98.2877 3.3336V8.0377H100.292V11.2109Z" fill="white"/>
<path d="M105.434 2.30371V5.78307H101.565V2.30371H105.434ZM105.378 8.0377V24.0149H101.621V8.0377H105.378Z" fill="white"/>
<path d="M111.351 14.3841V24.0149H107.593V8.0377H111.184V9.7913C112.241 8.65007 114.078 7.59234 116.417 7.59234C119.812 7.59234 122.15 9.84697 122.15 13.5212V24.0149H118.393V14.6624C118.393 11.8789 116.778 10.9047 114.913 10.9047C113.327 10.9047 111.351 12.1294 111.351 14.3841Z" fill="white"/>
<path d="M140.783 21.8995C139.029 23.5139 136.746 24.85 133.1 24.85C127.366 24.85 123.664 21.0644 123.664 16.0263C123.664 10.9604 127.338 7.23049 132.321 7.23049C137.275 7.23049 140.95 10.9604 140.95 16.0263V16.9727H127.672C128.006 19.8397 129.843 21.6211 133.1 21.6211C135.577 21.6211 137.303 20.7583 138.528 19.5335L140.783 21.8995ZM132.321 10.4315C129.983 10.4315 128.396 11.8232 127.839 14.0779H136.774C136.218 11.8232 134.659 10.4315 132.321 10.4315Z" fill="white"/>
<defs>
<linearGradient id="paint0_linear_530_13824" x1="4.00939" y1="4.87607" x2="16.2988" y2="19.5275" gradientUnits="userSpaceOnUse">
<stop stop-color="#FFC901"/>
<stop offset="0.172213" stop-color="#EC611D"/>
<stop offset="0.482213" stop-color="#DC367F"/>
<stop offset="0.667213" stop-color="#633A8D"/>
</linearGradient>
<linearGradient id="paint1_linear_530_13824" x1="4.00939" y1="4.87607" x2="16.2988" y2="19.5275" gradientUnits="userSpaceOnUse">
<stop stop-color="#FFC901"/>
<stop offset="0.172213" stop-color="#EC611D"/>
<stop offset="0.482213" stop-color="#DC367F"/>
<stop offset="0.667213" stop-color="#633A8D"/>
</linearGradient>
<linearGradient id="paint2_linear_530_13824" x1="4.00939" y1="4.87607" x2="16.2988" y2="19.5275" gradientUnits="userSpaceOnUse">
<stop stop-color="#FFC901"/>
<stop offset="0.172213" stop-color="#EC611D"/>
<stop offset="0.482213" stop-color="#DC367F"/>
<stop offset="0.667213" stop-color="#633A8D"/>
</linearGradient>
<linearGradient id="paint3_linear_530_13824" x1="4.00939" y1="4.87607" x2="16.2988" y2="19.5275" gradientUnits="userSpaceOnUse">
<stop stop-color="#FFC901"/>
<stop offset="0.172213" stop-color="#EC611D"/>
<stop offset="0.482213" stop-color="#DC367F"/>
<stop offset="0.667213" stop-color="#633A8D"/>
</linearGradient>
<linearGradient id="paint4_linear_530_13824" x1="4.00939" y1="4.87607" x2="16.2988" y2="19.5275" gradientUnits="userSpaceOnUse">
<stop stop-color="#FFC901"/>
<stop offset="0.172213" stop-color="#EC611D"/>
<stop offset="0.482213" stop-color="#DC367F"/>
<stop offset="0.667213" stop-color="#633A8D"/>
</linearGradient>
</defs>
</svg>
