<svg width="28" height="28" viewBox="0 0 28 28" fill="none" xmlns="http://www.w3.org/2000/svg">
<rect width="28" height="28" rx="4" fill="#3C932F" fill-opacity="0.2"/>
<path d="M13.9992 16.8125C10.2867 16.8125 10.2867 11.1875 13.9992 11.1875C17.6695 11.1875 17.8282 16.8125 13.9992 16.8125ZM13.9992 12.3125C11.7492 12.3125 11.7492 15.6875 13.9992 15.6875C16.2492 15.6875 16.2492 12.3125 13.9992 12.3125Z" fill="#3C932F"/>
<path d="M13.9997 19.0625C11.2158 19.0625 8.55016 17.5837 6.68716 15.0046C6.47537 14.7125 6.36133 14.3608 6.36133 14C6.36133 13.6392 6.47537 13.2875 6.68716 12.9954C8.55016 10.4163 11.2158 8.9375 13.9997 8.9375C16.7835 8.9375 19.4492 10.4163 21.3122 12.9954C21.5239 13.2875 21.638 13.6392 21.638 14C21.638 14.3608 21.5239 14.7125 21.3122 15.0046C19.4492 17.5837 16.7835 19.0625 13.9997 19.0625ZM7.59672 14.3454C9.27185 16.6618 11.5455 17.9375 13.9997 17.9375C16.4538 17.9375 18.7275 16.6618 20.4026 14.3454C20.4755 14.2449 20.5147 14.1239 20.5147 13.9997C20.5147 13.8756 20.4755 13.7546 20.4026 13.6541C18.7275 11.3383 16.4538 10.0625 13.9997 10.0625C11.5455 10.0625 9.27185 11.3382 7.59672 13.6546C7.52385 13.7551 7.48461 13.8761 7.48461 14.0003C7.48461 14.1244 7.52385 14.2449 7.59672 14.3454Z" fill="#3C932F"/>
</svg>
